####
#
#	OBJ File Generated by LightWave3D
#	LightWave3D OBJ Export v2.3
#
####
o Wall_withWindowFrame.obj
mtllib Wall_withWindowFrame.mtl
g default
v -1000 0 -45
v -1000 1000 -30
v -100 1000 -30
v -100 0 -45
v -1000 45 -45
v -100 45 -45
v -100 80 -0
v -1000 80 -0
v -1000 900 -0
v -100 900 -0
v -1000 910 -45
v -100 910 -45
v -1000 940 -45
v -100 940 -45
v -1000 975 -30
v -100 975 -30
v 1000 0 -45
v 1000 1000 -30
v 100 1000 -30
v 100 0 -45
v 1000 45 -45
v 100 45 -45
v 100 80 -0
v 1000 80 -0
v 1000 900 -0
v 100 900 -0
v 1000 910 -45
v 100 910 -45
v 1000 940 -45
v 100 940 -45
v 1000 975 -30
v 100 975 -30
v 1000 600 -0
v 100 600 -0
v -100 600 -0
v -1000 600 -0
v 1000 250 -0
v 100 250 -0
v -100 250 -0
v -1000 250 -0
vt 0.016129 0.0138889
vt 0.016129 0.152778
vt 0.016129 0.182292
vt 0.016129 0.201258
vt 0.016129 0.293383
vt 0.016129 0.48305
vt 0.016129 0.645623
vt 0.016129 0.651042
vt 0.016129 0.680556
vt 0.016129 0.726852
vt 0.016129 0.780864
vt 0.016129 0.819444
vt 0.451613 0.0138889
vt 0.451613 0.152778
vt 0.451613 0.182292
vt 0.451613 0.201258
vt 0.451613 0.293383
vt 0.451613 0.48305
vt 0.451613 0.645623
vt 0.451613 0.651042
vt 0.451613 0.680556
vt 0.451613 0.726852
vt 0.451613 0.780864
vt 0.451613 0.819444
vt 0.548387 0.0138889
vt 0.548387 0.152778
vt 0.548387 0.182292
vt 0.548387 0.201258
vt 0.548387 0.293383
vt 0.548387 0.48305
vt 0.548387 0.645623
vt 0.548387 0.651042
vt 0.548387 0.680556
vt 0.548387 0.726852
vt 0.548387 0.780864
vt 0.548387 0.819444
vt 0.983871 0.0138889
vt 0.983871 0.152778
vt 0.983871 0.182292
vt 0.983871 0.201258
vt 0.983871 0.293383
vt 0.983871 0.48305
vt 0.983871 0.645623
vt 0.983871 0.651042
vt 0.983871 0.680556
vt 0.983871 0.726852
vt 0.983871 0.780864
vt 0.983871 0.819444
vn 0 0 -1
vn 0 0.439351 -0.898315
vn 0 0.439351 -0.898315
vn 0 0 -1
vn 0 0.439351 -0.898315
vn 0 0.439351 -0.898315
vn 0 0.439351 -0.898315
vn 0 0.439351 -0.898315
vn 0 -0.625727 -0.780042
vn 0 -0.625727 -0.780042
vn 0 -0.625727 -0.780042
vn 0 -0.625727 -0.780042
vn 0 -0.625727 -0.780042
vn 0 0.201066 -0.979578
vn 0 0.201066 -0.979578
vn 0 -0.625727 -0.780042
vn 0 0.201066 -0.979578
vn 0 0.201066 -0.979578
vn 0 0.201066 -0.979578
vn 0 0.201066 -0.979578
vn 0 0 -1
vn 0 0.201066 -0.979578
vn 0 0.201066 -0.979578
vn 0 0 -1
vn 0 0 -1
vn 0 0.439351 -0.898315
vn 0 0.439351 -0.898315
vn 0 0 -1
vn 0 0.439351 -0.898315
vn 0 0.439351 -0.898315
vn 0 0.439351 -0.898315
vn 0 0.439351 -0.898315
vn 0 -0.625727 -0.780042
vn 0 -0.625727 -0.780042
vn 0 -0.625727 -0.780042
vn 0 -0.625727 -0.780042
vn 0 -0.625727 -0.780042
vn 0 0.201066 -0.979578
vn 0 0.201066 -0.979578
vn 0 -0.625727 -0.780042
vn 0 0.201066 -0.979578
vn 0 0.201066 -0.979578
vn 0 0.201066 -0.979578
vn 0 0.201066 -0.979578
vn 0 0 -1
vn 0 0.201066 -0.979578
vn 0 0.201066 -0.979578
vn 0 0 -1
vn 0 -0.625727 -0.780042
vn 0 0 -1
vn 0 0 -1
vn 0 -0.625727 -0.780042
vn 0 -0.625727 -0.780042
vn 0 0 -1
vn 0 0 -1
vn 0 -0.625727 -0.780042
vn 0 0.201066 -0.979578
vn 0 0.201066 -0.979578
vn 0 0 -1
vn 0 0 -1
vn 0 0.201066 -0.979578
vn 0 0.201066 -0.979578
vn 0 0.201066 -0.979578
vn 0 0.201066 -0.979578
vn 0 -0.625727 -0.780042
vn 0 -0.625727 -0.780042
vn 0 0.201066 -0.979578
vn 0 0.201066 -0.979578
vn 0 -0.625727 -0.780042
vn 0 -0.625727 -0.780042
vn 0 -0.625727 -0.780042
vn 0 -0.625727 -0.780042
vn 0 0 -1
vn 0 0 -1
vn 0 -0.625727 -0.780042
vn 0 -0.625727 -0.780042
vn 0 0 -1
vn 0 0 -1
vn 0 0 -1
vn 0 0 -1
vn 0 0.439351 -0.898315
vn 0 0 -1
vn 0 0 -1
vn 0 0.439351 -0.898315
vn 0 0 -1
vn 0 0 -1
vn 0 0 -1
vn 0 0 -1
vn 0 0.439351 -0.898315
vn 0 0 -1
vn 0 0 -1
vn 0 0.439351 -0.898315
vn 0 0.439351 -0.898315
vn 0 0.439351 -0.898315
vn 0 0 -1
vn 0 0 -1
vn 0 0.439351 -0.898315
vn 0 0.439351 -0.898315
vn 0 0.439351 -0.898315
vn 0 0.439351 -0.898315
vn 0 0 -1
vn 0 0 -1
vn 0 0.439351 -0.898315
vn 0 0.439351 -0.898315
g Floor_Molding_UV
usemtl Floor_Molding_UV
s 1
f 1/1/1 5/2/2 6/14/3 4/13/4
f 8/4/5 7/16/6 6/15/7 5/3/8
g Crown_Molding_UV
usemtl Crown_Molding_UV
s 1
f 9/7/9 11/8/10 12/20/11 10/19/12
f 11/9/13 13/10/14 14/22/15 12/21/16
f 13/10/17 15/11/18 16/23/19 14/22/20
f 3/24/21 16/23/22 15/11/23 2/12/24
g Floor_Molding_UV
usemtl Floor_Molding_UV
s 1
f 20/25/25 22/26/26 21/38/27 17/37/28
f 21/39/29 22/27/30 23/28/31 24/40/32
g Crown_Molding_UV
usemtl Crown_Molding_UV
s 1
f 26/31/33 28/32/34 27/44/35 25/43/36
f 28/33/37 30/34/38 29/46/39 27/45/40
f 30/34/41 32/35/42 31/47/43 29/46/44
f 18/48/45 31/47/46 32/35/47 19/36/48
g Wall_UV
usemtl Wall_UV
s 1
f 25/43/49 33/42/50 34/30/51 26/31/52
f 10/19/53 35/18/54 36/6/55 9/7/56
g Crown_Molding_UV
usemtl Crown_Molding_UV
s 1
f 32/35/57 16/23/58 3/24/59 19/36/60
f 30/34/61 14/22/62 16/23/63 32/35/64
f 28/33/65 12/21/66 14/22/67 30/34/68
f 26/31/69 10/19/70 12/20/71 28/32/72
g Wall_UV
usemtl Wall_UV
s 1
f 34/30/73 35/18/74 10/19/75 26/31/76
f 33/42/77 37/41/78 38/29/79 34/30/80
f 23/28/81 38/29/82 37/41/83 24/40/84
f 35/18/85 39/17/86 40/5/87 36/6/88
f 8/4/89 40/5/90 39/17/91 7/16/92
f 23/28/93 7/16/94 39/17/95 38/29/96
g Floor_Molding_UV
usemtl Floor_Molding_UV
s 1
f 22/27/97 6/15/98 7/16/99 23/28/100
f 20/25/101 4/13/102 6/14/103 22/26/104
