####
#
#	OBJ File Generated by LightWave3D
#	LightWave3D OBJ Export v2.3
#
####
o Wall_withDoorFrame.obj
mtllib Wall_withDoorFrame.mtl
g default
v -1000 0 -45
v -1000 1000 -30
v -100 1000 -30
v -100 0 -45
v -1000 45 -45
v -100 45 -45
v -100 80 -0
v -1000 80 -0
v -1000 900 -0
v -100 900 -0
v -1000 910 -45
v -100 910 -45
v -1000 940 -45
v -100 940 -45
v -1000 975 -30
v -100 975 -30
v 1000 0 -45
v 1000 1000 -30
v 100 1000 -30
v 100 0 -45
v 1000 45 -45
v 100 45 -45
v 100 80 -0
v 1000 80 -0
v 1000 900 -0
v 100 900 -0
v 1000 910 -45
v 100 910 -45
v 1000 940 -45
v 100 940 -45
v 1000 975 -30
v 100 975 -30
v 1000 600 -0
v 100 600 -0
v -100 600 -0
v -1000 600 -0
vt 0.00686812 0.434524
vt 0.00686812 0.468006
vt 0.00686812 0.494048
vt 0.00702575 0.00595238
vt 0.00702575 0.0119048
vt 0.00702575 0.0297619
vt 0.00702575 0.0505952
vt 0.00702575 0.0654762
vt 0.00702575 0.0782967
vt 0.00702575 0.296067
vt 0.00702575 0.421703
vt 0.350275 0.434524
vt 0.350275 0.468006
vt 0.350275 0.494048
vt 0.364011 0.434524
vt 0.364011 0.468006
vt 0.364011 0.494048
vt 0.386417 0.00595238
vt 0.386417 0.0119048
vt 0.386417 0.0297619
vt 0.386417 0.0505952
vt 0.386417 0.0654762
vt 0.386417 0.0782967
vt 0.386417 0.296067
vt 0.386417 0.421703
vt 0.470726 0.00595238
vt 0.470726 0.0119048
vt 0.470726 0.0297619
vt 0.470726 0.0505952
vt 0.470726 0.0654762
vt 0.470726 0.0782967
vt 0.470726 0.296067
vt 0.470726 0.421703
vt 0.707418 0.434524
vt 0.707418 0.468006
vt 0.707418 0.494048
vt 0.850117 0.00595238
vt 0.850117 0.0119048
vt 0.850117 0.0297619
vt 0.850117 0.0505952
vt 0.850117 0.0654762
vt 0.850117 0.0782967
vt 0.850117 0.296067
vt 0.850117 0.421703
vn 0 0 -1
vn 0 0.439351 -0.898315
vn 0 0.439351 -0.898315
vn 0 0 -1
vn 0 0.439351 -0.898315
vn 0 0.439351 -0.898315
vn 0 0.439351 -0.898315
vn 0 0.439351 -0.898315
vn 0 -0.625727 -0.780042
vn 0 -0.625727 -0.780042
vn 0 -0.625727 -0.780042
vn 0 -0.625727 -0.780042
vn 0 -0.625727 -0.780042
vn 0 0.201066 -0.979578
vn 0 0.201066 -0.979578
vn 0 -0.625727 -0.780042
vn 0 0.201066 -0.979578
vn 0 0.201066 -0.979578
vn 0 0.201066 -0.979578
vn 0 0.201066 -0.979578
vn 0 0 -1
vn 0 0.201066 -0.979578
vn 0 0.201066 -0.979578
vn 0 0 -1
vn 0 0 -1
vn 0 0.439351 -0.898315
vn 0 0.439351 -0.898315
vn 0 0 -1
vn 0 0.439351 -0.898315
vn 0 0.439351 -0.898315
vn 0 0.439351 -0.898315
vn 0 0.439351 -0.898315
vn 0 -0.625727 -0.780042
vn 0 -0.625727 -0.780042
vn 0 -0.625727 -0.780042
vn 0 -0.625727 -0.780042
vn 0 -0.625727 -0.780042
vn 0 0.201066 -0.979578
vn 0 0.201066 -0.979578
vn 0 -0.625727 -0.780042
vn 0 0.201066 -0.979578
vn 0 0.201066 -0.979578
vn 0 0.201066 -0.979578
vn 0 0.201066 -0.979578
vn 0 0 -1
vn 0 0.201066 -0.979578
vn 0 0.201066 -0.979578
vn 0 0 -1
vn 0 -0.625727 -0.780042
vn 0 0 -1
vn 0 0 -1
vn 0 -0.625727 -0.780042
vn 0 0.439351 -0.898315
vn 0 0 -1
vn 0 0 -1
vn 0 0.439351 -0.898315
vn 0 -0.625727 -0.780042
vn 0 0 -1
vn 0 0 -1
vn 0 -0.625727 -0.780042
vn 0 0.439351 -0.898315
vn 0 0 -1
vn 0 0 -1
vn 0 0.439351 -0.898315
vn 0 0.201066 -0.979578
vn 0 0.201066 -0.979578
vn 0 0 -1
vn 0 0 -1
vn 0 0.201066 -0.979578
vn 0 0.201066 -0.979578
vn 0 0.201066 -0.979578
vn 0 0.201066 -0.979578
vn 0 -0.625727 -0.780042
vn 0 -0.625727 -0.780042
vn 0 0.201066 -0.979578
vn 0 0.201066 -0.979578
vn 0 -0.625727 -0.780042
vn 0 -0.625727 -0.780042
vn 0 -0.625727 -0.780042
vn 0 -0.625727 -0.780042
vn 0 0 -1
vn 0 0 -1
vn 0 -0.625727 -0.780042
vn 0 -0.625727 -0.780042
g Floor_Molding_UV
usemtl Floor_Molding_UV
s 1
f 1/1/1 5/2/2 6/13/3 4/12/4
f 8/3/5 7/14/6 6/13/7 5/2/8
g Crown_Molding_UV
usemtl Crown_Molding_UV
s 1
f 9/4/9 11/5/10 12/19/11 10/18/12
f 11/5/13 13/6/14 14/20/15 12/19/16
f 13/6/17 15/7/18 16/21/19 14/20/20
f 3/22/21 16/21/22 15/7/23 2/8/24
g Floor_Molding_UV
usemtl Floor_Molding_UV
s 1
f 20/15/25 22/16/26 21/35/27 17/34/28
f 21/35/29 22/16/30 23/17/31 24/36/32
g Crown_Molding_UV
usemtl Crown_Molding_UV
s 1
f 26/26/33 28/27/34 27/38/35 25/37/36
f 28/27/37 30/28/38 29/39/39 27/38/40
f 30/28/41 32/29/42 31/40/43 29/39/44
f 18/41/45 31/40/46 32/29/47 19/30/48
g Main_Wall_UV
usemtl Main_Wall_UV
s 1
f 25/44/49 33/43/50 34/32/51 26/33/52
f 23/31/53 34/32/54 33/43/55 24/42/56
f 10/25/57 35/24/58 36/10/59 9/11/60
f 8/9/61 36/10/62 35/24/63 7/23/64
g Crown_Molding_UV
usemtl Crown_Molding_UV
s 1
f 32/29/65 16/21/66 3/22/67 19/30/68
f 30/28/69 14/20/70 16/21/71 32/29/72
f 28/27/73 12/19/74 14/20/75 30/28/76
f 26/26/77 10/18/78 12/19/79 28/27/80
g Main_Wall_UV
usemtl Main_Wall_UV
s 1
f 34/32/81 35/24/82 10/25/83 26/33/84
