####
#
#	OBJ File Generated by LightWave3D
#	LightWave3D OBJ Export v2.3
#
####
o Wall_withDoorFrame.obj
mtllib Wall_withDoorFrame.mtl
g default
v -112.5 -5 3.35181
v -109.5 575 3.35181
v -84.5 575 3.35181
v -87.5 -5 3.35181
v -112.5 -5 -49.8518
v -109.5 575 -49.8518
v -84.5 575 -49.8518
v -87.5 -5 -49.8518
v 112.5 -5 3.35181
v 114.5 575 3.35181
v 87.5 575 3.35181
v 87.5 -5 3.35181
v 112.5 -5 -49.8518
v 114.5 575 -49.8518
v 87.5 575 -49.8518
v 87.5 -5 -49.8518
v -110 575 5.39819
v -110 605 5.39819
v 115 605 5.39819
v 115 575 5.39819
v -110 575 -50
v -110 605 -50
v 115 605 -50
v 115 575 -50
v -1000 0 -45
v -1000 1000 -30
v -100 1000 -30
v -100 0 -45
v -1000 45 -45
v -100 45 -45
v -100 80 -0
v -1000 80 -0
v -1000 900 -0
v -100 900 -0
v -1000 910 -45
v -100 910 -45
v -1000 940 -45
v -100 940 -45
v -1000 975 -30
v -100 975 -30
v 1000 0 -45
v 1000 1000 -30
v 100 1000 -30
v 100 0 -45
v 1000 45 -45
v 100 45 -45
v 100 80 -0
v 1000 80 -0
v 1000 900 -0
v 100 900 -0
v 1000 910 -45
v 100 910 -45
v 1000 940 -45
v 100 940 -45
v 1000 975 -30
v 100 975 -30
v 1000 600 -0
v 100 600 -0
v -100 600 -0
v -1000 600 -0
vt 0.000816464 0.451588
vt 0.000816464 0.474641
vt 0.000818223 0.0499967
vt 0.000818223 0.0663712
vt 0.000818223 0.30965
vt 0.000818223 0.450003
vt 0.416885 0.0499967
vt 0.416885 0.0663712
vt 0.416885 0.30965
vt 0.416885 0.450003
vt 0.417216 0.451588
vt 0.417216 0.474641
vt 0.418849 0.451588
vt 0.418849 0.474641
vt 0.509344 0.0499967
vt 0.509344 0.0663712
vt 0.509344 0.30965
vt 0.509344 0.450003
vt 0.835249 0.451588
vt 0.835249 0.474641
vt 0.925411 0.0499967
vt 0.925411 0.0663712
vt 0.925411 0.30965
vt 0.925411 0.450003
vn 0 0 1
vn 0 0 1
vn 0 0 1
vn 0 0 1
vn -0.999987 0.00517234 -0
vn -0.999987 0.00517234 -0
vn -0.999987 0.00517234 -0
vn -0.999987 0.00517234 -0
vn 0 1 -0
vn 0 1 -0
vn 0 1 -0
vn 0 1 -0
vn 0.999987 -0.00517234 -0
vn 0.999987 -0.00517234 -0
vn 0.999987 -0.00517234 -0
vn 0.999987 -0.00517234 -0
vn 0 -1 -0
vn 0 -1 -0
vn 0 -1 -0
vn 0 -1 -0
vn 0 0 -1
vn 0 0 -1
vn 0 0 -1
vn 0 0 -1
vn 0 0 1
vn 0 0 1
vn 0 0 1
vn 0 0 1
vn 0.999994 -0.00344826 -0
vn 0.999994 -0.00344826 -0
vn 0.999994 -0.00344826 -0
vn 0.999994 -0.00344826 -0
vn 0 1 -0
vn 0 1 -0
vn 0 1 -0
vn 0 1 -0
vn -1 0 -0
vn -1 0 -0
vn -1 0 -0
vn -1 0 -0
vn -0 -1 0
vn -0 -1 0
vn -0 -1 0
vn -0 -1 0
vn 0 0 -1
vn 0 0 -1
vn 0 0 -1
vn 0 0 -1
vn 0 0 1
vn 0 0 1
vn 0 0 1
vn 0 0 1
vn -1 0 -0
vn -1 0 -0
vn -1 0 -0
vn -1 0 -0
vn 0 1 -0
vn 0 1 -0
vn 0 1 -0
vn 0 1 -0
vn 1 0 -0
vn 1 0 -0
vn 1 0 -0
vn 1 0 -0
vn 0 -1 -0
vn 0 -1 -0
vn 0 -1 -0
vn 0 -1 -0
vn 0 0 -1
vn 0 0 -1
vn 0 0 -1
vn 0 0 -1
vn 0 0 1
vn 0 0 1
vn 0 0 1
vn 0 0 1
vn 0 -0.789352 0.613941
vn 0 -0.789352 0.613941
vn 0 -0.789352 0.613941
vn 0 -0.789352 0.613941
vn 0 0.976187 0.21693
vn 0 0.976187 0.21693
vn 0 0.976187 0.21693
vn 0 0.976187 0.21693
vn 0 0 1
vn 0 0 1
vn 0 0 1
vn 0 0 1
vn -0 -0.393919 0.919145
vn -0 -0.393919 0.919145
vn -0 -0.393919 0.919145
vn -0 -0.393919 0.919145
vn 0 0 1
vn 0 0 1
vn 0 0 1
vn 0 0 1
vn 0 0 1
vn 0 0 1
vn 0 0 1
vn 0 0 1
vn -0 -0.789352 0.613941
vn -0 -0.789352 0.613941
vn -0 -0.789352 0.613941
vn -0 -0.789352 0.613941
vn 0 0.976187 0.21693
vn 0 0.976187 0.21693
vn 0 0.976187 0.21693
vn 0 0.976187 0.21693
vn 0 0 1
vn 0 0 1
vn 0 0 1
vn 0 0 1
vn -0 -0.393919 0.919145
vn -0 -0.393919 0.919145
vn -0 -0.393919 0.919145
vn -0 -0.393919 0.919145
vn 0 0 1
vn 0 0 1
vn 0 0 1
vn 0 0 1
vn 0 0 1
vn 0 0 1
vn 0 0 1
vn 0 0 1
vn 0 0 1
vn 0 0 1
vn 0 0 1
vn 0 0 1
vn 0 0 1
vn 0 0 1
vn 0 0 1
vn 0 0 1
vn 0 0 1
vn 0 0 1
vn 0 0 1
vn 0 0 1
vn -0 -0 1
vn -0 -0 1
vn -0 -0 1
vn -0 -0 1
vn -0 -0.393919 0.919145
vn -0 -0.393919 0.919145
vn -0 -0.393919 0.919145
vn -0 -0.393919 0.919145
vn -0 -0 1
vn -0 -0 1
vn -0 -0 1
vn -0 -0 1
vn 0 0.976187 0.21693
vn 0 0.976187 0.21693
vn 0 0.976187 0.21693
vn 0 0.976187 0.21693
vn -0 -0 1
vn -0 -0 1
vn -0 -0 1
vn -0 -0 1
g Default
usemtl Default
s off
f 4//1 3//2 2//3 1//4
f 2//5 6//6 5//7 1//8
f 3//9 7//10 6//11 2//12
f 8//13 7//14 3//15 4//16
f 5//17 8//18 4//19 1//20
f 6//21 7//22 8//23 5//24
f 9//25 10//26 11//27 12//28
f 9//29 13//30 14//31 10//32
f 10//33 14//34 15//35 11//36
f 12//37 11//38 15//39 16//40
f 9//41 12//42 16//43 13//44
f 13//45 16//46 15//47 14//48
f 20//49 19//50 18//51 17//52
f 18//53 22//54 21//55 17//56
f 19//57 23//58 22//59 18//60
f 24//61 23//62 19//63 20//64
f 21//65 24//66 20//67 17//68
f 22//69 23//70 24//71 21//72
g Floor_Molding_UV
usemtl Floor_Molding_UV
s 1
f 30/20/73 29/14/74 25/13/75 28/19/76
f 30/7/77 31/8/78 32/4/79 29/3/80
g Crown_Molding_UV
usemtl Crown_Molding_UV
s 1
f 36//81 35//82 33//83 34//84
f 38//85 37//86 35//87 36//88
f 40//89 39//90 37//91 38//92
f 39//93 40//94 27//95 26//96
g Floor_Molding_UV
usemtl Floor_Molding_UV
s 1
f 45/12/97 46/2/98 44/1/99 41/11/100
f 47/16/101 46/15/102 45/21/103 48/22/104
g Crown_Molding_UV
usemtl Crown_Molding_UV
s 1
f 51//105 52//106 50//107 49//108
f 53//109 54//110 52//111 51//112
f 55//113 56//114 54//115 53//116
f 56//117 55//118 42//119 43//120
g Main_Wall_UV
usemtl Main_Wall_UV
s 1
f 58/17/121 57/23/122 49/24/123 50/18/124
f 57/23/125 58/17/126 47/16/127 48/22/128
f 60/5/129 59/9/130 34/10/131 33/6/132
f 59/9/133 60/5/134 32/4/135 31/8/136
g Crown_Molding_UV
usemtl Crown_Molding_UV
s 1
f 27//137 40//138 56//139 43//140
f 40//141 38//142 54//143 56//144
f 38//145 36//146 52//147 54//148
f 36//149 34//150 50//151 52//152
g Main_Wall_UV
usemtl Main_Wall_UV
s 1
f 34/10/153 59/9/154 58/17/155 50/18/156
v -1000 0 -45
v -1000 1000 -30
v -100 1000 -30
v -100 0 -45
v -1000 45 -45
v -100 45 -45
v -100 80 -0
v -1000 80 -0
v -1000 900 -0
v -100 900 -0
v -1000 910 -45
v -100 910 -45
v -1000 940 -45
v -100 940 -45
v -1000 975 -30
v -100 975 -30
v 1000 0 -45
v 1000 1000 -30
v 100 1000 -30
v 100 0 -45
v 1000 45 -45
v 100 45 -45
v 100 80 -0
v 1000 80 -0
v 1000 900 -0
v 100 900 -0
v 1000 910 -45
v 100 910 -45
v 1000 940 -45
v 100 940 -45
v 1000 975 -30
v 100 975 -30
v 1000 600 -0
v 100 600 -0
v -100 600 -0
v -1000 600 -0
vt 0.000816464 0.451588
vt 0.000816464 0.474641
vt 0.000818223 0.0499967
vt 0.000818223 0.0663712
vt 0.000818223 0.30965
vt 0.000818223 0.450003
vt 0.416885 0.0499967
vt 0.416885 0.0663712
vt 0.416885 0.30965
vt 0.416885 0.450003
vt 0.417216 0.451588
vt 0.417216 0.474641
vt 0.418849 0.451588
vt 0.418849 0.474641
vt 0.509344 0.0499967
vt 0.509344 0.0663712
vt 0.509344 0.30965
vt 0.509344 0.450003
vt 0.835249 0.451588
vt 0.835249 0.474641
vt 0.925411 0.0499967
vt 0.925411 0.0663712
vt 0.925411 0.30965
vt 0.925411 0.450003
vn 0 -0 -1
vn 0 -0 -1
vn 0 -0 -1
vn 0 -0 -1
vn -0 0.789352 -0.613941
vn -0 0.789352 -0.613941
vn -0 0.789352 -0.613941
vn -0 0.789352 -0.613941
vn 0 -0.976187 -0.21693
vn 0 -0.976187 -0.21693
vn 0 -0.976187 -0.21693
vn 0 -0.976187 -0.21693
vn 0 -0 -1
vn 0 -0 -1
vn 0 -0 -1
vn 0 -0 -1
vn 0 0.393919 -0.919145
vn 0 0.393919 -0.919145
vn 0 0.393919 -0.919145
vn 0 0.393919 -0.919145
vn -0 0 -1
vn -0 0 -1
vn -0 0 -1
vn -0 0 -1
vn 0 -0 -1
vn 0 -0 -1
vn 0 -0 -1
vn 0 -0 -1
vn 0 0.789352 -0.613941
vn 0 0.789352 -0.613941
vn 0 0.789352 -0.613941
vn 0 0.789352 -0.613941
vn 0 -0.976187 -0.21693
vn 0 -0.976187 -0.21693
vn 0 -0.976187 -0.21693
vn 0 -0.976187 -0.21693
vn 0 -0 -1
vn 0 -0 -1
vn 0 -0 -1
vn 0 -0 -1
vn 0 0.393919 -0.919145
vn 0 0.393919 -0.919145
vn 0 0.393919 -0.919145
vn 0 0.393919 -0.919145
vn -0 0 -1
vn -0 0 -1
vn -0 0 -1
vn -0 0 -1
vn -0 0 -1
vn -0 0 -1
vn -0 0 -1
vn -0 0 -1
vn 0 -0 -1
vn 0 -0 -1
vn 0 -0 -1
vn 0 -0 -1
vn -0 0 -1
vn -0 0 -1
vn -0 0 -1
vn -0 0 -1
vn 0 -0 -1
vn 0 -0 -1
vn 0 -0 -1
vn 0 -0 -1
vn 0 0 -1
vn 0 0 -1
vn 0 0 -1
vn 0 0 -1
vn 0 0.393919 -0.919145
vn 0 0.393919 -0.919145
vn 0 0.393919 -0.919145
vn 0 0.393919 -0.919145
vn 0 0 -1
vn 0 0 -1
vn 0 0 -1
vn 0 0 -1
vn 0 -0.976187 -0.21693
vn 0 -0.976187 -0.21693
vn 0 -0.976187 -0.21693
vn 0 -0.976187 -0.21693
vn 0 0 -1
vn 0 0 -1
vn 0 0 -1
vn 0 0 -1
g Floor_Molding_UV
usemtl Floor_Molding_UV
s 1
f 61/37/157 65/38/158 66/44/159 64/43/160
f 68/28/161 67/32/162 66/31/163 65/27/164
g Crown_Molding_UV
usemtl Crown_Molding_UV
s 1
f 69//165 71//166 72//167 70//168
f 71//169 73//170 74//171 72//172
f 73//173 75//174 76//175 74//176
f 63//177 76//178 75//179 62//180
g Floor_Molding_UV
usemtl Floor_Molding_UV
s 1
f 80/25/181 82/26/182 81/36/183 77/35/184
f 81/45/185 82/39/186 83/40/187 84/46/188
g Crown_Molding_UV
usemtl Crown_Molding_UV
s 1
f 86//189 88//190 87//191 85//192
f 88//193 90//194 89//195 87//196
f 90//197 92//198 91//199 89//200
f 78//201 91//202 92//203 79//204
g Main_Wall_UV
usemtl Main_Wall_UV
s 1
f 85/48/205 93/47/206 94/41/207 86/42/208
f 83/40/209 94/41/210 93/47/211 84/46/212
f 70/34/213 95/33/214 96/29/215 69/30/216
f 68/28/217 96/29/218 95/33/219 67/32/220
g Crown_Molding_UV
usemtl Crown_Molding_UV
s 1
f 92//221 76//222 63//223 79//224
f 90//225 74//226 76//227 92//228
f 88//229 72//230 74//231 90//232
f 86//233 70//234 72//235 88//236
g Main_Wall_UV
usemtl Main_Wall_UV
s 1
f 94/41/237 95/33/238 70/34/239 86/42/240
