####
#
#	OBJ File Generated by LightWave3D
#	LightWave3D OBJ Export v2.3
#
####
o door.obj
mtllib door.mtl
g default
v -70 160 4216.24
v -70 670 4216.24
v 190 670 4216.24
v 190 160 4216.24
v -70 160 4200
v -70 670 4200
v 190 670 4200
v 190 160 4200
v -65 160 3508.76
v -65 670 3508.76
v 195 670 3508.76
v 195 160 3508.76
v -65 160 3525
v -65 670 3525
v 195 670 3525
v 195 160 3525
vn 0 0 1
vn 0 0 1
vn 0 0 1
vn 0 0 1
vn -1 0 -0
vn -1 0 -0
vn -1 0 -0
vn -1 0 -0
vn 0 1 -0
vn 0 1 -0
vn 0 1 -0
vn 0 1 -0
vn 1 0 -0
vn 1 0 -0
vn 1 0 -0
vn 1 0 -0
vn 0 -1 -0
vn 0 -1 -0
vn 0 -1 -0
vn 0 -1 -0
vn 0 0 -1
vn 0 0 -1
vn 0 0 -1
vn 0 0 -1
vn 0 -0 -1
vn 0 -0 -1
vn 0 -0 -1
vn 0 -0 -1
vn -1 -0 0
vn -1 -0 0
vn -1 -0 0
vn -1 -0 0
vn 0 1 -0
vn 0 1 -0
vn 0 1 -0
vn 0 1 -0
vn 1 0 -0
vn 1 0 -0
vn 1 0 -0
vn 1 0 -0
vn 0 -1 -0
vn 0 -1 -0
vn 0 -1 -0
vn 0 -1 -0
vn 0 0 1
vn 0 0 1
vn 0 0 1
vn 0 0 1
g Default
usemtl Default
s off
f 4//1 3//2 2//3 1//4
f 2//5 6//6 5//7 1//8
f 3//9 7//10 6//11 2//12
f 8//13 7//14 3//15 4//16
f 5//17 8//18 4//19 1//20
f 6//21 7//22 8//23 5//24
f 9//25 10//26 11//27 12//28
f 9//29 13//30 14//31 10//32
f 10//33 14//34 15//35 11//36
f 12//37 11//38 15//39 16//40
f 9//41 12//42 16//43 13//44
f 13//45 16//46 15//47 14//48
