####
#
#	OBJ File Generated by LightWave3D
#	LightWave3D OBJ Export v2.3
#
####
o Floor_kamino.obj
mtllib Floor_kamino.mtl
g default
v 4250 -117.902 -0
v 4105.18 -117.902 -1087.04
v 3680.61 -117.902 -2100
v 3005.2 -117.902 -2969.85
v 2125 -117.902 -3637.31
v 1099.98 -117.902 -4056.89
v 0 -117.902 -4200
v -1099.98 -117.902 -4056.89
v -2125 -117.902 -3637.31
v -3005.2 -117.902 -2969.85
v -3680.61 -117.902 -2100
v -4105.18 -117.902 -1087.04
v -4250 -117.902 -0
v -4105.18 -117.902 1087.04
v -3680.61 -117.902 2100
v -3005.2 -117.902 2969.85
v -2125 -117.902 3637.31
v -1099.98 -117.902 4056.89
v 0 -117.902 4200
v 1099.98 -117.902 4056.89
v 2125 -117.902 3637.31
v 3005.2 -117.902 2969.85
v 3680.61 -117.902 2100
v 4105.18 -117.902 1087.04
v 4250 -300 -0
v 4105.18 -300 -1087.04
v 3680.61 -300 -2100
v 3005.2 -300 -2969.85
v 2125 -300 -3637.31
v 1099.98 -300 -4056.89
v 0 -300 -4200
v -1099.98 -300 -4056.89
v -2125 -300 -3637.31
v -3005.2 -300 -2969.85
v -3680.61 -300 -2100
v -4105.18 -300 -1087.04
v -4250 -300 -0
v -4105.18 -300 1087.04
v -3680.61 -300 2100
v -3005.2 -300 2969.85
v -2125 -300 3637.31
v -1099.98 -300 4056.89
v 0 -300 4200
v 1099.98 -300 4056.89
v 2125 -300 3637.31
v 3005.2 -300 2969.85
v 3680.61 -300 2100
v 4105.18 -300 1087.04
v 4250 -117.902 -0
v 4105.18 -117.902 -1087.04
v 3680.61 -117.902 -2100
v 3005.2 -117.902 -2969.85
v 2125 -117.902 -3637.31
v 1099.98 -117.902 -4056.89
v 0 -117.902 -4200
v -1099.98 -117.902 -4056.89
v -2125 -117.902 -3637.31
v -3005.2 -117.902 -2969.85
v -3680.61 -117.902 -2100
v -4105.18 -117.902 -1087.04
v -4250 -117.902 -0
v -4105.18 -117.902 1087.04
v -3680.61 -117.902 2100
v -3005.2 -117.902 2969.85
v -2125 -117.902 3637.31
v -1099.98 -117.902 4056.89
v 0 -117.902 4200
v 1099.98 -117.902 4056.89
v 2125 -117.902 3637.31
v 3005.2 -117.902 2969.85
v 3680.61 -117.902 2100
v 4105.18 -117.902 1087.04
v 4250 -300 -0
v 4105.18 -300 -1087.04
v 3680.61 -300 -2100
v 3005.2 -300 -2969.85
v 2125 -300 -3637.31
v 1099.98 -300 -4056.89
v 0 -300 -4200
v -1099.98 -300 -4056.89
v -2125 -300 -3637.31
v -3005.2 -300 -2969.85
v -3680.61 -300 -2100
v -4105.18 -300 -1087.04
v -4250 -300 -0
v -4105.18 -300 1087.04
v -3680.61 -300 2100
v -3005.2 -300 2969.85
v -2125 -300 3637.31
v -1099.98 -300 4056.89
v 0 -300 4200
v 1099.98 -300 4056.89
v 2125 -300 3637.31
v 3005.2 -300 2969.85
v 3680.61 -300 2100
v 4105.18 -300 1087.04
vt 0 0.5
vt 0.0170371 0.37059
vt 0.0170371 0.62941
vt 0.0669873 0.25
vt 0.0669873 0.75
vt 0.146447 0.146447
vt 0.146447 0.853553
vt 0.25 0.0669873
vt 0.25 0.933013
vt 0.37059 0.0170371
vt 0.37059 0.982963
vt 0.5 0
vt 0.5 1
vt 0.62941 0.0170371
vt 0.62941 0.982963
vt 0.75 0.0669873
vt 0.75 0.933013
vt 0.853553 0.146447
vt 0.853553 0.853553
vt 0.933013 0.25
vt 0.933013 0.75
vt 0.982963 0.37059
vt 0.982963 0.62941
vt 1 0.5
vn 0 -1 -0
vn 0 -1 -0
vn 0 -1 -0
vn 0 -1 -0
vn 0 -1 -0
vn 0 -1 -0
vn 0 -1 -0
vn 0 -1 -0
vn 0 -1 -0
vn 0 -1 -0
vn 0 -1 -0
vn 0 -1 -0
vn 0 -1 -0
vn 0 -1 -0
vn 0 -1 -0
vn 0 -1 -0
vn 0 -1 -0
vn 0 -1 -0
vn 0 -1 -0
vn 0 -1 -0
vn 0 -1 -0
vn 0 -1 -0
vn 0 -1 -0
vn 0 -1 -0
vn 0 1 -0
vn 0 1 -0
vn 0 1 -0
vn 0 1 -0
vn 0 1 -0
vn 0 1 -0
vn 0 1 -0
vn 0 1 -0
vn 0 1 -0
vn 0 1 -0
vn 0 1 -0
vn 0 1 -0
vn 0 1 -0
vn 0 1 -0
vn 0 1 -0
vn 0 1 -0
vn 0 1 -0
vn 0 1 -0
vn 0 1 -0
vn 0 1 -0
vn 0 1 -0
vn 0 1 -0
vn 0 1 -0
vn 0 1 -0
vn -0.991243 0 0.132053
vn -0.991243 0 0.132053
vn -0.991243 0 0.132053
vn -0.991243 0 0.132053
vn -0.922264 0 0.386562
vn -0.922264 0 0.386562
vn -0.922264 0 0.386562
vn -0.922264 0 0.386562
vn -0.789856 0 0.613293
vn -0.789856 0 0.613293
vn -0.789856 0 0.613293
vn -0.789856 0 0.613293
vn -0.604224 0 0.796815
vn -0.604224 0 0.796815
vn -0.604224 0 0.796815
vn -0.604224 0 0.796815
vn -0.378831 0 0.925466
vn -0.378831 0 0.925466
vn -0.378831 0 0.925466
vn -0.378831 0 0.925466
vn -0.129016 0 0.991642
vn -0.129016 0 0.991642
vn -0.129016 0 0.991642
vn -0.129016 0 0.991642
vn 0.129016 0 0.991642
vn 0.129016 0 0.991642
vn 0.129016 0 0.991642
vn 0.129016 0 0.991642
vn 0.378831 0 0.925466
vn 0.378831 0 0.925466
vn 0.378831 0 0.925466
vn 0.378831 0 0.925466
vn 0.604224 0 0.796815
vn 0.604224 0 0.796815
vn 0.604224 0 0.796815
vn 0.604224 0 0.796815
vn 0.789856 0 0.613293
vn 0.789856 0 0.613293
vn 0.789856 0 0.613293
vn 0.789856 0 0.613293
vn 0.922264 0 0.386562
vn 0.922264 0 0.386562
vn 0.922264 0 0.386562
vn 0.922264 0 0.386562
vn 0.991243 0 0.132053
vn 0.991243 0 0.132053
vn 0.991243 0 0.132053
vn 0.991243 0 0.132053
vn 0.991243 -0 -0.132053
vn 0.991243 -0 -0.132053
vn 0.991243 -0 -0.132053
vn 0.991243 -0 -0.132053
vn 0.922264 -0 -0.386562
vn 0.922264 -0 -0.386562
vn 0.922264 -0 -0.386562
vn 0.922264 -0 -0.386562
vn 0.789856 -0 -0.613293
vn 0.789856 -0 -0.613293
vn 0.789856 -0 -0.613293
vn 0.789856 -0 -0.613293
vn 0.604224 -0 -0.796815
vn 0.604224 -0 -0.796815
vn 0.604224 -0 -0.796815
vn 0.604224 -0 -0.796815
vn 0.378831 -0 -0.925466
vn 0.378831 -0 -0.925466
vn 0.378831 -0 -0.925466
vn 0.378831 -0 -0.925466
vn 0.129016 -0 -0.991642
vn 0.129016 -0 -0.991642
vn 0.129016 -0 -0.991642
vn 0.129016 -0 -0.991642
vn -0.129016 0 -0.991642
vn -0.129016 0 -0.991642
vn -0.129016 0 -0.991642
vn -0.129016 0 -0.991642
vn -0.378831 0 -0.925466
vn -0.378831 0 -0.925466
vn -0.378831 0 -0.925466
vn -0.378831 0 -0.925466
vn -0.604224 0 -0.796815
vn -0.604224 0 -0.796815
vn -0.604224 0 -0.796815
vn -0.604224 0 -0.796815
vn -0.789856 0 -0.613293
vn -0.789856 0 -0.613293
vn -0.789856 0 -0.613293
vn -0.789856 0 -0.613293
vn -0.922264 0 -0.386562
vn -0.922264 0 -0.386562
vn -0.922264 0 -0.386562
vn -0.922264 0 -0.386562
vn -0.991243 0 -0.132053
vn -0.991243 0 -0.132053
vn -0.991243 0 -0.132053
vn -0.991243 0 -0.132053
vn 0.965179 0 -0.261591
vn 0.965179 0 -0.261591
vn 1 0 -0
vn 1 0 -0
vn 0.863533 0 -0.504292
vn 0.863533 0 -0.504292
vn 0.965179 0 -0.261591
vn 0.965179 0 -0.261591
vn 0.703054 0 -0.711137
vn 0.703054 0 -0.711137
vn 0.863533 0 -0.504292
vn 0.863533 0 -0.504292
vn 0.495719 0 -0.868483
vn 0.495719 0 -0.868483
vn 0.703054 0 -0.711137
vn 0.703054 0 -0.711137
vn 0.25607 0 -0.966658
vn 0.25607 0 -0.966658
vn 0.495719 0 -0.868483
vn 0.495719 0 -0.868483
vn 0 0 -1
vn 0 0 -1
vn 0.25607 0 -0.966658
vn 0.25607 0 -0.966658
vn -0.25607 0 -0.966658
vn 0 0 -1
vn 0 0 -1
vn -0.25607 0 -0.966658
vn -0.495719 0 -0.868483
vn -0.25607 0 -0.966658
vn -0.25607 0 -0.966658
vn -0.495719 0 -0.868483
vn -0.703054 0 -0.711137
vn -0.495719 0 -0.868483
vn -0.495719 0 -0.868483
vn -0.703054 0 -0.711137
vn -0.863533 0 -0.504292
vn -0.703054 0 -0.711137
vn -0.703054 0 -0.711137
vn -0.863533 0 -0.504292
vn -0.965179 0 -0.261591
vn -0.863533 0 -0.504292
vn -0.863533 0 -0.504292
vn -0.965179 0 -0.261591
vn -1 0 -0
vn -0.965179 0 -0.261591
vn -0.965179 0 -0.261591
vn -1 0 -0
vn -0.965179 0 0.261591
vn -1 0 -0
vn -1 0 -0
vn -0.965179 0 0.261591
vn -0.863533 0 0.504292
vn -0.965179 0 0.261591
vn -0.965179 0 0.261591
vn -0.863533 0 0.504292
vn -0.703054 0 0.711137
vn -0.863533 0 0.504292
vn -0.863533 0 0.504292
vn -0.703054 0 0.711137
vn -0.495719 0 0.868483
vn -0.703054 0 0.711137
vn -0.703054 0 0.711137
vn -0.495719 0 0.868483
vn -0.25607 0 0.966658
vn -0.495719 0 0.868483
vn -0.495719 0 0.868483
vn -0.25607 0 0.966658
vn 0 0 1
vn -0.25607 0 0.966658
vn -0.25607 0 0.966658
vn 0 0 1
vn 0.25607 0 0.966658
vn 0.25607 0 0.966658
vn 0 0 1
vn 0 0 1
vn 0.495719 0 0.868483
vn 0.495719 0 0.868483
vn 0.25607 0 0.966658
vn 0.25607 0 0.966658
vn 0.703054 0 0.711137
vn 0.703054 0 0.711137
vn 0.495719 0 0.868483
vn 0.495719 0 0.868483
vn 0.863533 0 0.504292
vn 0.863533 0 0.504292
vn 0.703054 0 0.711137
vn 0.703054 0 0.711137
vn 0.965179 0 0.261591
vn 0.965179 0 0.261591
vn 0.863533 0 0.504292
vn 0.863533 0 0.504292
vn 1 0 -0
vn 1 0 -0
vn 0.965179 0 0.261591
vn 0.965179 0 0.261591
g Floor
usemtl Floor
s 1
f 48/22/1 47/20/2 46/18/3 45/16/4 44/14/5 43/12/6 42/10/7 41/8/8 40/6/9 39/4/10 38/2/11 37/1/12 36/3/13 35/5/14 34/7/15 33/9/16 32/11/17 31/13/18 30/15/19 29/17/20 28/19/21 27/21/22 26/23/23 25/24/24
g Default
usemtl Default
s off
f 74/23/25 75/21/26 76/19/27 77/17/28 78/15/29 79/13/30 80/11/31 81/9/32 82/7/33 83/5/34 84/3/35 85/1/36 86/2/37 87/4/38 88/6/39 89/8/40 90/10/41 91/12/42 92/14/43 93/16/44 94/18/45 95/20/46 96/22/47 73/24/48
f 1/24/49 2/23/50 74/23/51 73/24/52
f 2/23/53 3/21/54 75/21/55 74/23/56
f 3/21/57 4/19/58 76/19/59 75/21/60
f 4/19/61 5/17/62 77/17/63 76/19/64
f 5/17/65 6/15/66 78/15/67 77/17/68
f 6/15/69 7/13/70 79/13/71 78/15/72
f 79/13/73 7/13/74 8/11/75 80/11/76
f 80/11/77 8/11/78 9/9/79 81/9/80
f 81/9/81 9/9/82 10/7/83 82/7/84
f 82/7/85 10/7/86 11/5/87 83/5/88
f 83/5/89 11/5/90 12/3/91 84/3/92
f 84/3/93 12/3/94 13/1/95 85/1/96
f 85/1/97 13/1/98 14/2/99 86/2/100
f 86/2/101 14/2/102 15/4/103 87/4/104
f 87/4/105 15/4/106 16/6/107 88/6/108
f 88/6/109 16/6/110 17/8/111 89/8/112
f 89/8/113 17/8/114 18/10/115 90/10/116
f 90/10/117 18/10/118 19/12/119 91/12/120
f 19/12/121 20/14/122 92/14/123 91/12/124
f 20/14/125 21/16/126 93/16/127 92/14/128
f 21/16/129 22/18/130 94/18/131 93/16/132
f 22/18/133 23/20/134 95/20/135 94/18/136
f 23/20/137 24/22/138 96/22/139 95/20/140
f 24/22/141 1/24/142 73/24/143 96/22/144
g Floor
usemtl Floor
s 1
f 26/23/145 50/23/146 49/24/147 25/24/148
f 27/21/149 51/21/150 50/23/151 26/23/152
f 28/19/153 52/19/154 51/21/155 27/21/156
f 29/17/157 53/17/158 52/19/159 28/19/160
f 30/15/161 54/15/162 53/17/163 29/17/164
f 31/13/165 55/13/166 54/15/167 30/15/168
f 56/11/169 55/13/170 31/13/171 32/11/172
f 57/9/173 56/11/174 32/11/175 33/9/176
f 58/7/177 57/9/178 33/9/179 34/7/180
f 59/5/181 58/7/182 34/7/183 35/5/184
f 60/3/185 59/5/186 35/5/187 36/3/188
f 61/1/189 60/3/190 36/3/191 37/1/192
f 62/2/193 61/1/194 37/1/195 38/2/196
f 63/4/197 62/2/198 38/2/199 39/4/200
f 64/6/201 63/4/202 39/4/203 40/6/204
f 65/8/205 64/6/206 40/6/207 41/8/208
f 66/10/209 65/8/210 41/8/211 42/10/212
f 67/12/213 66/10/214 42/10/215 43/12/216
f 44/14/217 68/14/218 67/12/219 43/12/220
f 45/16/221 69/16/222 68/14/223 44/14/224
f 46/18/225 70/18/226 69/16/227 45/16/228
f 47/20/229 71/20/230 70/18/231 46/18/232
f 48/22/233 72/22/234 71/20/235 47/20/236
f 25/24/237 49/24/238 72/22/239 48/22/240
